<svg xmlns="http://www.w3.org/2000/svg" xmlns:xlink="http://www.w3.org/1999/xlink" width="500" zoomAndPan="magnify" viewBox="0 0 375 74.999997" height="100" preserveAspectRatio="xMidYMid meet" version="1.0"><defs><g/><clipPath id="0e59923e39"><path d="M 171.601562 49.960938 L 180.566406 49.960938 L 180.566406 58.925781 L 171.601562 58.925781 Z M 171.601562 49.960938 " clip-rule="nonzero"/></clipPath><clipPath id="50d538e306"><path d="M 176.082031 49.960938 L 180.566406 54.441406 L 176.082031 58.925781 L 171.601562 54.441406 Z M 176.082031 49.960938 " clip-rule="nonzero"/></clipPath></defs><g fill="#021e36" fill-opacity="1"><g transform="translate(0.252857, 25.222031)"><g><path d="M 19.65625 0 L 14.375 0 C 14.132812 -0.332031 13.96875 -0.757812 13.875 -1.28125 C 13.78125 -1.6875 13.644531 -2.082031 13.46875 -2.46875 C 13.300781 -2.851562 13.003906 -3.171875 12.578125 -3.421875 C 12.160156 -3.679688 11.535156 -3.820312 10.703125 -3.84375 L 7.0625 -3.84375 L 7.0625 0 L 1.484375 0 L 1.484375 -13.3125 L 10.5625 -13.3125 C 12.738281 -13.3125 14.492188 -13.148438 15.828125 -12.828125 C 17.160156 -12.503906 18.128906 -11.992188 18.734375 -11.296875 C 19.347656 -10.597656 19.65625 -9.691406 19.65625 -8.578125 C 19.65625 -7.640625 19.441406 -6.851562 19.015625 -6.21875 C 18.597656 -5.582031 17.929688 -5.078125 17.015625 -4.703125 C 17.898438 -4.335938 18.472656 -3.898438 18.734375 -3.390625 C 18.992188 -2.878906 19.15625 -2.316406 19.21875 -1.703125 C 19.28125 -1.160156 19.425781 -0.59375 19.65625 0 Z M 7.0625 -7.125 L 10.265625 -7.140625 C 11.148438 -7.140625 11.847656 -7.175781 12.359375 -7.25 C 12.878906 -7.332031 13.257812 -7.441406 13.5 -7.578125 C 13.75 -7.722656 13.90625 -7.878906 13.96875 -8.046875 C 14.039062 -8.210938 14.078125 -8.390625 14.078125 -8.578125 C 14.078125 -8.753906 14.039062 -8.925781 13.96875 -9.09375 C 13.90625 -9.269531 13.75 -9.425781 13.5 -9.5625 C 13.257812 -9.707031 12.878906 -9.816406 12.359375 -9.890625 C 11.847656 -9.972656 11.148438 -10.015625 10.265625 -10.015625 L 7.0625 -10.015625 Z M 7.0625 -7.125 "/></g></g></g><g fill="#021e36" fill-opacity="1"><g transform="translate(20.653562, 25.222031)"><g><path d="M 22.359375 0 L 16.703125 0 L 15.453125 -2.1875 L 7.046875 -2.1875 L 5.796875 0 L 0.140625 0 L 8.65625 -13.296875 L 13.84375 -13.296875 Z M 13.5625 -5.46875 L 11.25 -9.515625 L 8.9375 -5.46875 Z M 13.5625 -5.46875 "/></g></g></g><g fill="#021e36" fill-opacity="1"><g transform="translate(43.150928, 25.222031)"><g><path d="M 19.65625 0 L 14.375 0 C 14.132812 -0.332031 13.96875 -0.757812 13.875 -1.28125 C 13.78125 -1.6875 13.644531 -2.082031 13.46875 -2.46875 C 13.300781 -2.851562 13.003906 -3.171875 12.578125 -3.421875 C 12.160156 -3.679688 11.535156 -3.820312 10.703125 -3.84375 L 7.0625 -3.84375 L 7.0625 0 L 1.484375 0 L 1.484375 -13.3125 L 10.5625 -13.3125 C 12.738281 -13.3125 14.492188 -13.148438 15.828125 -12.828125 C 17.160156 -12.503906 18.128906 -11.992188 18.734375 -11.296875 C 19.347656 -10.597656 19.65625 -9.691406 19.65625 -8.578125 C 19.65625 -7.640625 19.441406 -6.851562 19.015625 -6.21875 C 18.597656 -5.582031 17.929688 -5.078125 17.015625 -4.703125 C 17.898438 -4.335938 18.472656 -3.898438 18.734375 -3.390625 C 18.992188 -2.878906 19.15625 -2.316406 19.21875 -1.703125 C 19.28125 -1.160156 19.425781 -0.59375 19.65625 0 Z M 7.0625 -7.125 L 10.265625 -7.140625 C 11.148438 -7.140625 11.847656 -7.175781 12.359375 -7.25 C 12.878906 -7.332031 13.257812 -7.441406 13.5 -7.578125 C 13.75 -7.722656 13.90625 -7.878906 13.96875 -8.046875 C 14.039062 -8.210938 14.078125 -8.390625 14.078125 -8.578125 C 14.078125 -8.753906 14.039062 -8.925781 13.96875 -9.09375 C 13.90625 -9.269531 13.75 -9.425781 13.5 -9.5625 C 13.257812 -9.707031 12.878906 -9.816406 12.359375 -9.890625 C 11.847656 -9.972656 11.148438 -10.015625 10.265625 -10.015625 L 7.0625 -10.015625 Z M 7.0625 -7.125 "/></g></g></g><g fill="#021e36" fill-opacity="1"><g transform="translate(63.551633, 25.222031)"><g><path d="M 17.515625 0 L 1.484375 0 L 1.484375 -13.3125 L 16.78125 -13.3125 L 16.78125 -10.015625 L 7.0625 -10.015625 L 7.0625 -7.9375 L 15.28125 -7.9375 L 15.28125 -5.375 L 7.0625 -5.375 L 7.0625 -3.296875 L 17.515625 -3.296875 Z M 17.515625 0 "/></g></g></g><g fill="#021e36" fill-opacity="1"><g transform="translate(81.809289, 25.222031)"><g/></g></g><g fill="#021e36" fill-opacity="1"><g transform="translate(86.52214, 25.222031)"><g><path d="M 7.0625 0 L 1.484375 0 L 1.484375 -13.3125 L 16.78125 -13.3125 L 16.78125 -10.015625 L 7.0625 -10.015625 L 7.0625 -7.9375 L 15.28125 -7.9375 L 15.28125 -5.375 L 7.0625 -5.375 Z M 7.0625 0 "/></g></g></g><g fill="#021e36" fill-opacity="1"><g transform="translate(104.046893, 25.222031)"><g><path d="M 10.0625 0.28125 C 6.769531 0.28125 4.347656 -0.394531 2.796875 -1.75 C 1.429688 -2.945312 0.75 -4.582031 0.75 -6.65625 C 0.75 -8.71875 1.429688 -10.347656 2.796875 -11.546875 C 4.347656 -12.898438 6.769531 -13.578125 10.0625 -13.578125 C 13.351562 -13.578125 15.773438 -12.898438 17.328125 -11.546875 C 18.703125 -10.347656 19.390625 -8.71875 19.390625 -6.65625 C 19.390625 -4.582031 18.703125 -2.945312 17.328125 -1.75 C 15.773438 -0.394531 13.351562 0.28125 10.0625 0.28125 Z M 10.0625 -3.28125 C 11.414062 -3.28125 12.40625 -3.664062 13.03125 -4.4375 C 13.539062 -5.0625 13.796875 -5.800781 13.796875 -6.65625 C 13.796875 -7.5 13.539062 -8.226562 13.03125 -8.84375 C 12.40625 -9.625 11.414062 -10.015625 10.0625 -10.015625 C 8.71875 -10.015625 7.726562 -9.625 7.09375 -8.84375 C 6.582031 -8.226562 6.328125 -7.5 6.328125 -6.65625 C 6.328125 -5.800781 6.582031 -5.0625 7.09375 -4.4375 C 7.726562 -3.664062 8.71875 -3.28125 10.0625 -3.28125 Z M 10.0625 -3.28125 "/></g></g></g><g fill="#021e36" fill-opacity="1"><g transform="translate(124.178557, 25.222031)"><g><path d="M 19.65625 0 L 14.375 0 C 14.132812 -0.332031 13.96875 -0.757812 13.875 -1.28125 C 13.78125 -1.6875 13.644531 -2.082031 13.46875 -2.46875 C 13.300781 -2.851562 13.003906 -3.171875 12.578125 -3.421875 C 12.160156 -3.679688 11.535156 -3.820312 10.703125 -3.84375 L 7.0625 -3.84375 L 7.0625 0 L 1.484375 0 L 1.484375 -13.3125 L 10.5625 -13.3125 C 12.738281 -13.3125 14.492188 -13.148438 15.828125 -12.828125 C 17.160156 -12.503906 18.128906 -11.992188 18.734375 -11.296875 C 19.347656 -10.597656 19.65625 -9.691406 19.65625 -8.578125 C 19.65625 -7.640625 19.441406 -6.851562 19.015625 -6.21875 C 18.597656 -5.582031 17.929688 -5.078125 17.015625 -4.703125 C 17.898438 -4.335938 18.472656 -3.898438 18.734375 -3.390625 C 18.992188 -2.878906 19.15625 -2.316406 19.21875 -1.703125 C 19.28125 -1.160156 19.425781 -0.59375 19.65625 0 Z M 7.0625 -7.125 L 10.265625 -7.140625 C 11.148438 -7.140625 11.847656 -7.175781 12.359375 -7.25 C 12.878906 -7.332031 13.257812 -7.441406 13.5 -7.578125 C 13.75 -7.722656 13.90625 -7.878906 13.96875 -8.046875 C 14.039062 -8.210938 14.078125 -8.390625 14.078125 -8.578125 C 14.078125 -8.753906 14.039062 -8.925781 13.96875 -9.09375 C 13.90625 -9.269531 13.75 -9.425781 13.5 -9.5625 C 13.257812 -9.707031 12.878906 -9.816406 12.359375 -9.890625 C 11.847656 -9.972656 11.148438 -10.015625 10.265625 -10.015625 L 7.0625 -10.015625 Z M 7.0625 -7.125 "/></g></g></g><g fill="#021e36" fill-opacity="1"><g transform="translate(144.579261, 25.222031)"><g><path d="M 26.796875 0 L 21.203125 0 L 21.203125 -8.484375 L 16.21875 0 L 12.046875 0 L 7.0625 -8.484375 L 7.0625 0 L 1.484375 0 L 1.484375 -13.3125 L 8.125 -13.3125 L 14.140625 -3.796875 L 20.15625 -13.3125 L 26.796875 -13.3125 Z M 26.796875 0 "/></g></g></g><g fill="#021e36" fill-opacity="1"><g transform="translate(172.856364, 25.222031)"><g/></g></g><g fill="#021e36" fill-opacity="1"><g transform="translate(177.572634, 25.222031)"><g><path d="M 19.65625 0 L 14.375 0 C 14.132812 -0.332031 13.96875 -0.757812 13.875 -1.28125 C 13.78125 -1.6875 13.644531 -2.082031 13.46875 -2.46875 C 13.300781 -2.851562 13.003906 -3.171875 12.578125 -3.421875 C 12.160156 -3.679688 11.535156 -3.820312 10.703125 -3.84375 L 7.0625 -3.84375 L 7.0625 0 L 1.484375 0 L 1.484375 -13.3125 L 10.5625 -13.3125 C 12.738281 -13.3125 14.492188 -13.148438 15.828125 -12.828125 C 17.160156 -12.503906 18.128906 -11.992188 18.734375 -11.296875 C 19.347656 -10.597656 19.65625 -9.691406 19.65625 -8.578125 C 19.65625 -7.640625 19.441406 -6.851562 19.015625 -6.21875 C 18.597656 -5.582031 17.929688 -5.078125 17.015625 -4.703125 C 17.898438 -4.335938 18.472656 -3.898438 18.734375 -3.390625 C 18.992188 -2.878906 19.15625 -2.316406 19.21875 -1.703125 C 19.28125 -1.160156 19.425781 -0.59375 19.65625 0 Z M 7.0625 -7.125 L 10.265625 -7.140625 C 11.148438 -7.140625 11.847656 -7.175781 12.359375 -7.25 C 12.878906 -7.332031 13.257812 -7.441406 13.5 -7.578125 C 13.75 -7.722656 13.90625 -7.878906 13.96875 -8.046875 C 14.039062 -8.210938 14.078125 -8.390625 14.078125 -8.578125 C 14.078125 -8.753906 14.039062 -8.925781 13.96875 -9.09375 C 13.90625 -9.269531 13.75 -9.425781 13.5 -9.5625 C 13.257812 -9.707031 12.878906 -9.816406 12.359375 -9.890625 C 11.847656 -9.972656 11.148438 -10.015625 10.265625 -10.015625 L 7.0625 -10.015625 Z M 7.0625 -7.125 "/></g></g></g><g fill="#021e36" fill-opacity="1"><g transform="translate(197.973339, 25.222031)"><g><path d="M 10.0625 0.28125 C 6.769531 0.28125 4.347656 -0.394531 2.796875 -1.75 C 1.429688 -2.945312 0.75 -4.582031 0.75 -6.65625 C 0.75 -8.71875 1.429688 -10.347656 2.796875 -11.546875 C 4.347656 -12.898438 6.769531 -13.578125 10.0625 -13.578125 C 13.351562 -13.578125 15.773438 -12.898438 17.328125 -11.546875 C 18.703125 -10.347656 19.390625 -8.71875 19.390625 -6.65625 C 19.390625 -4.582031 18.703125 -2.945312 17.328125 -1.75 C 15.773438 -0.394531 13.351562 0.28125 10.0625 0.28125 Z M 10.0625 -3.28125 C 11.414062 -3.28125 12.40625 -3.664062 13.03125 -4.4375 C 13.539062 -5.0625 13.796875 -5.800781 13.796875 -6.65625 C 13.796875 -7.5 13.539062 -8.226562 13.03125 -8.84375 C 12.40625 -9.625 11.414062 -10.015625 10.0625 -10.015625 C 8.71875 -10.015625 7.726562 -9.625 7.09375 -8.84375 C 6.582031 -8.226562 6.328125 -7.5 6.328125 -6.65625 C 6.328125 -5.800781 6.582031 -5.0625 7.09375 -4.4375 C 7.726562 -3.664062 8.71875 -3.28125 10.0625 -3.28125 Z M 10.0625 -3.28125 "/></g></g></g><g fill="#021e36" fill-opacity="1"><g transform="translate(218.105003, 25.222031)"><g><path d="M 22.359375 0 L 16.703125 0 L 15.453125 -2.1875 L 7.046875 -2.1875 L 5.796875 0 L 0.140625 0 L 8.65625 -13.296875 L 13.84375 -13.296875 Z M 13.5625 -5.46875 L 11.25 -9.515625 L 8.9375 -5.46875 Z M 13.5625 -5.46875 "/></g></g></g><g fill="#021e36" fill-opacity="1"><g transform="translate(240.60237, 25.222031)"><g><path d="M 8.796875 0.28125 C 6.992188 0.28125 5.539062 0.0859375 4.4375 -0.296875 C 3.34375 -0.679688 2.503906 -1.210938 1.921875 -1.890625 C 1.347656 -2.566406 0.960938 -3.347656 0.765625 -4.234375 L 6.703125 -4.234375 C 7.140625 -3.597656 7.835938 -3.28125 8.796875 -3.28125 C 9.753906 -3.28125 10.453125 -3.597656 10.890625 -4.234375 C 10.929688 -4.296875 10.953125 -4.347656 10.953125 -4.390625 C 10.953125 -4.554688 10.726562 -4.679688 10.28125 -4.765625 C 9.84375 -4.859375 9.179688 -4.925781 8.296875 -4.96875 C 7.191406 -5.007812 6.03125 -5.125 4.8125 -5.3125 C 2.101562 -5.738281 0.75 -6.832031 0.75 -8.59375 C 0.75 -8.738281 0.753906 -8.894531 0.765625 -9.0625 C 0.960938 -9.945312 1.347656 -10.726562 1.921875 -11.40625 C 2.503906 -12.082031 3.34375 -12.613281 4.4375 -13 C 5.539062 -13.382812 6.992188 -13.578125 8.796875 -13.578125 C 10.597656 -13.578125 12.046875 -13.382812 13.140625 -13 C 14.242188 -12.613281 15.082031 -12.082031 15.65625 -11.40625 C 16.226562 -10.726562 16.613281 -9.945312 16.8125 -9.0625 L 10.890625 -9.0625 C 10.453125 -9.695312 9.753906 -10.015625 8.796875 -10.015625 C 7.835938 -10.015625 7.140625 -9.695312 6.703125 -9.0625 C 6.671875 -9.007812 6.65625 -8.960938 6.65625 -8.921875 C 6.65625 -8.773438 6.863281 -8.664062 7.28125 -8.59375 C 7.707031 -8.519531 8.332031 -8.457031 9.15625 -8.40625 C 9.988281 -8.363281 10.867188 -8.285156 11.796875 -8.171875 C 12.734375 -8.054688 13.609375 -7.863281 14.421875 -7.59375 C 15.234375 -7.320312 15.867188 -6.914062 16.328125 -6.375 C 16.679688 -5.957031 16.859375 -5.429688 16.859375 -4.796875 C 16.859375 -4.617188 16.84375 -4.429688 16.8125 -4.234375 C 16.613281 -3.347656 16.226562 -2.566406 15.65625 -1.890625 C 15.082031 -1.210938 14.242188 -0.679688 13.140625 -0.296875 C 12.046875 0.0859375 10.597656 0.28125 8.796875 0.28125 Z M 8.796875 0.28125 "/></g></g></g><g fill="#021e36" fill-opacity="1"><g transform="translate(258.210618, 25.222031)"><g><path d="M 11.359375 0 L 5.765625 0 L 5.765625 -10.015625 L 0.5625 -10.015625 L 0.5625 -13.3125 L 16.5625 -13.3125 L 16.5625 -10.015625 L 11.359375 -10.015625 Z M 11.359375 0 "/></g></g></g><g fill="#021e36" fill-opacity="1"><g transform="translate(275.336448, 25.222031)"><g><path d="M 7.0625 0 L 1.484375 0 L 1.484375 -13.3125 L 7.0625 -13.3125 Z M 7.0625 0 "/></g></g></g><g fill="#021e36" fill-opacity="1"><g transform="translate(283.890086, 25.222031)"><g><path d="M 21.234375 0 L 14.59375 0 L 7.0625 -9.015625 L 7.0625 0 L 1.484375 0 L 1.484375 -13.3125 L 8.125 -13.3125 L 15.65625 -4.34375 L 15.65625 -13.3125 L 21.234375 -13.3125 Z M 21.234375 0 "/></g></g></g><g fill="#021e36" fill-opacity="1"><g transform="translate(306.610107, 25.222031)"><g><path d="M 10.0625 0.28125 C 6.769531 0.28125 4.347656 -0.394531 2.796875 -1.75 C 1.429688 -2.945312 0.75 -4.578125 0.75 -6.640625 C 0.75 -8.710938 1.429688 -10.347656 2.796875 -11.546875 C 4.347656 -12.898438 6.769531 -13.578125 10.0625 -13.578125 C 11.9375 -13.578125 13.492188 -13.367188 14.734375 -12.953125 C 15.984375 -12.535156 16.960938 -11.960938 17.671875 -11.234375 C 18.378906 -10.503906 18.863281 -9.664062 19.125 -8.71875 L 13.140625 -8.71875 C 12.515625 -9.582031 11.488281 -10.015625 10.0625 -10.015625 C 8.71875 -10.015625 7.726562 -9.625 7.09375 -8.84375 C 6.582031 -8.21875 6.328125 -7.484375 6.328125 -6.640625 C 6.328125 -5.796875 6.582031 -5.0625 7.09375 -4.4375 C 7.726562 -3.664062 8.71875 -3.28125 10.0625 -3.28125 C 11.15625 -3.28125 11.972656 -3.375 12.515625 -3.5625 C 13.066406 -3.75 13.46875 -4 13.71875 -4.3125 L 11.546875 -4.3125 L 11.546875 -6.640625 L 19.125 -6.640625 L 19.125 0.015625 L 16.796875 0.015625 L 16.328125 -1.28125 C 14.847656 -0.238281 12.757812 0.28125 10.0625 0.28125 Z M 10.0625 0.28125 "/></g></g></g><g fill="#021e36" fill-opacity="1"><g transform="translate(326.843821, 25.222031)"><g/></g></g><g fill="#021e36" fill-opacity="1"><g transform="translate(331.556671, 25.222031)"><g><path d="M 10.0625 0.28125 C 6.769531 0.28125 4.347656 -0.394531 2.796875 -1.75 C 1.429688 -2.9375 0.75 -4.566406 0.75 -6.640625 C 0.75 -8.710938 1.429688 -10.347656 2.796875 -11.546875 C 4.347656 -12.898438 6.769531 -13.578125 10.0625 -13.578125 C 11.988281 -13.578125 13.582031 -13.351562 14.84375 -12.90625 C 16.113281 -12.46875 17.097656 -11.863281 17.796875 -11.09375 C 18.492188 -10.332031 18.957031 -9.457031 19.1875 -8.46875 L 13.3125 -8.46875 C 12.726562 -9.5 11.644531 -10.015625 10.0625 -10.015625 C 8.71875 -10.015625 7.726562 -9.625 7.09375 -8.84375 C 6.582031 -8.21875 6.328125 -7.484375 6.328125 -6.640625 C 6.328125 -5.796875 6.582031 -5.0625 7.09375 -4.4375 C 7.726562 -3.664062 8.71875 -3.28125 10.0625 -3.28125 C 11.644531 -3.28125 12.726562 -3.796875 13.3125 -4.828125 L 19.1875 -4.828125 C 18.957031 -3.835938 18.492188 -2.957031 17.796875 -2.1875 C 17.097656 -1.425781 16.113281 -0.820312 14.84375 -0.375 C 13.582031 0.0625 11.988281 0.28125 10.0625 0.28125 Z M 10.0625 0.28125 "/></g></g></g><g fill="#021e36" fill-opacity="1"><g transform="translate(351.484235, 25.222031)"><g><path d="M 10.0625 0.28125 C 6.769531 0.28125 4.347656 -0.394531 2.796875 -1.75 C 1.429688 -2.945312 0.75 -4.582031 0.75 -6.65625 C 0.75 -8.71875 1.429688 -10.347656 2.796875 -11.546875 C 4.347656 -12.898438 6.769531 -13.578125 10.0625 -13.578125 C 13.351562 -13.578125 15.773438 -12.898438 17.328125 -11.546875 C 18.703125 -10.347656 19.390625 -8.71875 19.390625 -6.65625 C 19.390625 -4.582031 18.703125 -2.945312 17.328125 -1.75 C 15.773438 -0.394531 13.351562 0.28125 10.0625 0.28125 Z M 10.0625 -3.28125 C 11.414062 -3.28125 12.40625 -3.664062 13.03125 -4.4375 C 13.539062 -5.0625 13.796875 -5.800781 13.796875 -6.65625 C 13.796875 -7.5 13.539062 -8.226562 13.03125 -8.84375 C 12.40625 -9.625 11.414062 -10.015625 10.0625 -10.015625 C 8.71875 -10.015625 7.726562 -9.625 7.09375 -8.84375 C 6.582031 -8.226562 6.328125 -7.5 6.328125 -6.65625 C 6.328125 -5.800781 6.582031 -5.0625 7.09375 -4.4375 C 7.726562 -3.664062 8.71875 -3.28125 10.0625 -3.28125 Z M 10.0625 -3.28125 "/></g></g></g><g fill="#021e36" fill-opacity="1"><g transform="translate(371.615899, 25.222031)"><g><path d="M 2.84375 0 L 0.28125 0 L 0.28125 -2.5625 L 2.84375 -2.5625 Z M 2.84375 0 "/></g></g></g><path fill="#021e36" d="M 33.382812 35.753906 L 36.464844 35.753906 L 36.464844 38.835938 L 33.382812 38.835938 M 39.546875 35.753906 L 42.628906 35.753906 L 42.628906 38.835938 L 39.546875 38.835938 M 45.710938 35.753906 L 48.792969 35.753906 L 48.792969 38.835938 L 45.710938 38.835938 M 51.875 35.753906 L 54.957031 35.753906 L 54.957031 38.835938 L 51.875 38.835938 M 58.042969 35.753906 L 61.125 35.753906 L 61.125 38.835938 L 58.042969 38.835938 M 64.207031 35.753906 L 67.289062 35.753906 L 67.289062 38.835938 L 64.207031 38.835938 M 70.371094 35.753906 L 73.453125 35.753906 L 73.453125 38.835938 L 70.371094 38.835938 M 76.535156 35.753906 L 79.617188 35.753906 L 79.617188 38.835938 L 76.535156 38.835938 M 82.699219 35.753906 L 85.78125 35.753906 L 85.78125 38.835938 L 82.699219 38.835938 M 88.863281 35.753906 L 91.945312 35.753906 L 91.945312 38.835938 L 88.863281 38.835938 M 95.027344 35.753906 L 98.113281 35.753906 L 98.113281 38.835938 L 95.027344 38.835938 M 101.195312 35.753906 L 104.277344 35.753906 L 104.277344 38.835938 L 101.195312 38.835938 M 107.359375 35.753906 L 110.441406 35.753906 L 110.441406 38.835938 L 107.359375 38.835938 M 113.523438 35.753906 L 116.605469 35.753906 L 116.605469 38.835938 L 113.523438 38.835938 M 119.6875 35.753906 L 122.769531 35.753906 L 122.769531 38.835938 L 119.6875 38.835938 M 125.851562 35.753906 L 128.933594 35.753906 L 128.933594 38.835938 L 125.851562 38.835938 M 132.015625 35.753906 L 135.101562 35.753906 L 135.101562 38.835938 L 132.015625 38.835938 M 138.183594 35.753906 L 141.265625 35.753906 L 141.265625 38.835938 L 138.183594 38.835938 M 144.347656 35.753906 L 147.429688 35.753906 L 147.429688 38.835938 L 144.347656 38.835938 M 150.511719 35.753906 L 153.59375 35.753906 L 153.59375 38.835938 L 150.511719 38.835938 M 156.675781 35.753906 L 159.757812 35.753906 L 159.757812 38.835938 L 156.675781 38.835938 M 162.839844 35.753906 L 165.921875 35.753906 L 165.921875 38.835938 L 162.839844 38.835938 M 169.003906 35.753906 L 172.089844 35.753906 L 172.089844 38.835938 L 169.003906 38.835938 M 175.171875 35.753906 L 178.253906 35.753906 L 178.253906 38.835938 L 175.171875 38.835938 M 181.335938 35.753906 L 184.417969 35.753906 L 184.417969 38.835938 L 181.335938 38.835938 M 187.5 35.753906 L 190.582031 35.753906 L 190.582031 38.835938 L 187.5 38.835938 M 193.664062 35.753906 L 196.746094 35.753906 L 196.746094 38.835938 L 193.664062 38.835938 M 199.828125 35.753906 L 202.910156 35.753906 L 202.910156 38.835938 L 199.828125 38.835938 M 205.992188 35.753906 L 209.078125 35.753906 L 209.078125 38.835938 L 205.992188 38.835938 M 212.160156 35.753906 L 215.242188 35.753906 L 215.242188 38.835938 L 212.160156 38.835938 M 218.324219 35.753906 L 221.40625 35.753906 L 221.40625 38.835938 L 218.324219 38.835938 M 224.488281 35.753906 L 227.570312 35.753906 L 227.570312 38.835938 L 224.488281 38.835938 M 230.652344 35.753906 L 233.734375 35.753906 L 233.734375 38.835938 L 230.652344 38.835938 M 236.816406 35.753906 L 239.898438 35.753906 L 239.898438 38.835938 L 236.816406 38.835938 M 242.980469 35.753906 L 246.066406 35.753906 L 246.066406 38.835938 L 242.980469 38.835938 M 249.148438 35.753906 L 252.230469 35.753906 L 252.230469 38.835938 L 249.148438 38.835938 M 255.3125 35.753906 L 258.394531 35.753906 L 258.394531 38.835938 L 255.3125 38.835938 M 261.476562 35.753906 L 264.558594 35.753906 L 264.558594 38.835938 L 261.476562 38.835938 M 267.640625 35.753906 L 270.722656 35.753906 L 270.722656 38.835938 L 267.640625 38.835938 M 273.804688 35.753906 L 276.886719 35.753906 L 276.886719 38.835938 L 273.804688 38.835938 M 279.96875 35.753906 L 283.054688 35.753906 L 283.054688 38.835938 L 279.96875 38.835938 M 286.136719 35.753906 L 289.21875 35.753906 L 289.21875 38.835938 L 286.136719 38.835938 M 292.300781 35.753906 L 295.382812 35.753906 L 295.382812 38.835938 L 292.300781 38.835938 M 298.464844 35.753906 L 301.546875 35.753906 L 301.546875 38.835938 L 298.464844 38.835938 M 304.628906 35.753906 L 307.710938 35.753906 L 307.710938 38.835938 L 304.628906 38.835938 M 310.792969 35.753906 L 313.875 35.753906 L 313.875 38.835938 L 310.792969 38.835938 M 316.957031 35.753906 L 320.042969 35.753906 L 320.042969 38.835938 L 316.957031 38.835938 M 323.125 35.753906 L 326.207031 35.753906 L 326.207031 38.835938 L 323.125 38.835938 M 329.289062 35.753906 L 332.371094 35.753906 L 332.371094 38.835938 L 329.289062 38.835938 M 335.453125 35.753906 L 338.535156 35.753906 L 338.535156 38.835938 L 335.453125 38.835938 " fill-opacity="1" fill-rule="nonzero"/><g fill="#021e36" fill-opacity="1"><g transform="translate(101.791962, 60.412096)"><g><path d="M 3.421875 -12.222656 L 1.378906 -12.222656 L 1.378906 0 L 3.421875 0 C 6.460938 0 10.5625 -0.890625 10.5625 -6.113281 C 10.5625 -11.542969 6.390625 -12.222656 3.421875 -12.222656 Z M 3.421875 -1.992188 L 3.421875 -10.234375 C 3.421875 -10.234375 8.503906 -11 8.503906 -6.113281 C 8.503906 -1.292969 3.421875 -1.992188 3.421875 -1.992188 Z M 3.421875 -1.992188 "/></g></g></g><g fill="#021e36" fill-opacity="1"><g transform="translate(113.349576, 60.412096)"><g><path d="M 3.421875 -10.179688 L 9.535156 -10.179688 L 9.535156 -12.222656 L 1.378906 -12.222656 L 1.378906 0 L 9.535156 0 L 9.535156 -2.042969 L 3.421875 -2.042969 L 3.421875 -5.097656 L 8.503906 -5.097656 L 8.503906 -7.125 L 3.421875 -7.125 Z M 3.421875 -10.179688 "/></g></g></g><g fill="#021e36" fill-opacity="1"><g transform="translate(123.615251, 60.412096)"><g><path d="M 11.558594 0 L 11.558594 -12.222656 L 9.535156 -12.222656 L 9.535156 -3.527344 L 3.441406 -12.222656 L 1.378906 -12.222656 L 1.378906 0 L 3.421875 0 L 3.421875 -8.695312 L 9.5 0 Z M 11.558594 0 "/></g></g></g><g fill="#021e36" fill-opacity="1"><g transform="translate(136.569546, 60.412096)"><g><path d="M 9.761719 -12.222656 L 7.5625 -12.222656 L 4.871094 -5.011719 L 2.199219 -12.222656 L 0 -12.222656 L 4.871094 0.3125 Z M 9.761719 -12.222656 "/></g></g></g><g fill="#021e36" fill-opacity="1"><g transform="translate(146.346371, 60.412096)"><g><path d="M 3.421875 -10.179688 L 9.535156 -10.179688 L 9.535156 -12.222656 L 1.378906 -12.222656 L 1.378906 0 L 9.535156 0 L 9.535156 -2.042969 L 3.421875 -2.042969 L 3.421875 -5.097656 L 8.503906 -5.097656 L 8.503906 -7.125 L 3.421875 -7.125 Z M 3.421875 -10.179688 "/></g></g></g><g fill="#021e36" fill-opacity="1"><g transform="translate(156.612047, 60.412096)"><g><path d="M 5.0625 -5.097656 L 7.402344 0 L 9.65625 0 L 7.160156 -5.414062 C 8.257812 -5.816406 9.515625 -6.6875 9.515625 -8.660156 C 9.515625 -12.222656 5.429688 -12.222656 5.429688 -12.222656 L 1.363281 -12.222656 L 1.363281 0 L 3.40625 0 L 3.40625 -5.097656 Z M 3.40625 -7.125 L 3.40625 -10.179688 L 5.429688 -10.179688 C 5.429688 -10.179688 7.472656 -10.179688 7.472656 -8.660156 C 7.472656 -7.125 5.429688 -7.125 5.429688 -7.125 Z M 3.40625 -7.125 "/></g></g></g><g fill="#021e36" fill-opacity="1"><g transform="translate(167.075308, 60.412096)"><g/></g></g><g fill="#021e36" fill-opacity="1"><g transform="translate(173.098533, 60.412096)"><g/></g></g><g fill="#021e36" fill-opacity="1"><g transform="translate(179.121759, 60.412096)"><g/></g></g><g fill="#021e36" fill-opacity="1"><g transform="translate(185.14803, 60.412096)"><g><path d="M 7.089844 -1.867188 C 4.835938 -1.867188 3.039062 -3.492188 3.039062 -6.113281 C 3.039062 -8.574219 4.574219 -10.355469 7.089844 -10.355469 C 8.207031 -10.355469 9.238281 -9.902344 9.96875 -9.167969 L 11.402344 -10.597656 C 10.300781 -11.714844 8.78125 -12.398438 7.089844 -12.398438 C 3.511719 -12.398438 0.960938 -9.796875 0.960938 -6.113281 C 0.960938 -2.269531 3.71875 0.175781 7.089844 0.175781 C 8.78125 0.175781 10.300781 -0.507812 11.402344 -1.605469 L 9.96875 -3.054688 C 9.238281 -2.324219 8.207031 -1.867188 7.089844 -1.867188 Z M 7.089844 -1.867188 "/></g></g></g><g fill="#021e36" fill-opacity="1"><g transform="translate(197.264314, 60.412096)"><g><path d="M 6.933594 -12.378906 C -1.117188 -12.378906 -1.136719 0.15625 6.933594 0.15625 C 14.964844 0.15625 14.945312 -12.378906 6.933594 -12.378906 Z M 6.933594 -1.816406 C 1.640625 -1.816406 1.660156 -10.390625 6.933594 -10.390625 C 12.222656 -10.390625 12.222656 -1.816406 6.933594 -1.816406 Z M 6.933594 -1.816406 "/></g></g></g><g fill="#021e36" fill-opacity="1"><g transform="translate(211.178835, 60.412096)"><g><path d="M 3.421875 -2.042969 L 3.421875 -12.222656 L 1.378906 -12.222656 L 1.378906 0 L 7.945312 0 L 7.945312 -2.042969 Z M 3.421875 -2.042969 "/></g></g></g><g fill="#021e36" fill-opacity="1"><g transform="translate(219.925602, 60.412096)"><g><path d="M 6.933594 -12.378906 C -1.117188 -12.378906 -1.136719 0.15625 6.933594 0.15625 C 14.964844 0.15625 14.945312 -12.378906 6.933594 -12.378906 Z M 6.933594 -1.816406 C 1.640625 -1.816406 1.660156 -10.390625 6.933594 -10.390625 C 12.222656 -10.390625 12.222656 -1.816406 6.933594 -1.816406 Z M 6.933594 -1.816406 "/></g></g></g><g fill="#021e36" fill-opacity="1"><g transform="translate(233.840124, 60.412096)"><g><path d="M 5.0625 -5.097656 L 7.402344 0 L 9.65625 0 L 7.160156 -5.414062 C 8.257812 -5.816406 9.515625 -6.6875 9.515625 -8.660156 C 9.515625 -12.222656 5.429688 -12.222656 5.429688 -12.222656 L 1.363281 -12.222656 L 1.363281 0 L 3.40625 0 L 3.40625 -5.097656 Z M 3.40625 -7.125 L 3.40625 -10.179688 L 5.429688 -10.179688 C 5.429688 -10.179688 7.472656 -10.179688 7.472656 -8.660156 C 7.472656 -7.125 5.429688 -7.125 5.429688 -7.125 Z M 3.40625 -7.125 "/></g></g></g><g fill="#021e36" fill-opacity="1"><g transform="translate(244.297835, 60.412096)"><g><path d="M 7.019531 -1.414062 L 7.5625 0 L 9.761719 0 L 4.871094 -12.574219 L 0 0 L 2.199219 0 L 2.722656 -1.414062 Z M 3.386719 -3.179688 L 4.871094 -7.421875 L 6.355469 -3.179688 Z M 3.386719 -3.179688 "/></g></g></g><g fill="#021e36" fill-opacity="1"><g transform="translate(254.0572, 60.412096)"><g><path d="M 3.421875 -12.222656 L 1.378906 -12.222656 L 1.378906 0 L 3.421875 0 C 6.460938 0 10.5625 -0.890625 10.5625 -6.113281 C 10.5625 -11.542969 6.390625 -12.222656 3.421875 -12.222656 Z M 3.421875 -1.992188 L 3.421875 -10.234375 C 3.421875 -10.234375 8.503906 -11 8.503906 -6.113281 C 8.503906 -1.292969 3.421875 -1.992188 3.421875 -1.992188 Z M 3.421875 -1.992188 "/></g></g></g><g fill="#021e36" fill-opacity="1"><g transform="translate(265.614813, 60.412096)"><g><path d="M 6.933594 -12.378906 C -1.117188 -12.378906 -1.136719 0.15625 6.933594 0.15625 C 14.964844 0.15625 14.945312 -12.378906 6.933594 -12.378906 Z M 6.933594 -1.816406 C 1.640625 -1.816406 1.660156 -10.390625 6.933594 -10.390625 C 12.222656 -10.390625 12.222656 -1.816406 6.933594 -1.816406 Z M 6.933594 -1.816406 "/></g></g></g><g clip-path="url(#0e59923e39)"><g clip-path="url(#50d538e306)"><path fill="#021e36" d="M 171.601562 49.960938 L 180.566406 49.960938 L 180.566406 58.925781 L 171.601562 58.925781 Z M 171.601562 49.960938 " fill-opacity="1" fill-rule="nonzero"/></g></g></svg>