<svg xmlns="http://www.w3.org/2000/svg" xmlns:xlink="http://www.w3.org/1999/xlink" width="1000" zoomAndPan="magnify" viewBox="0 0 750 749.999995" height="1000" preserveAspectRatio="xMidYMid meet" version="1.0"><defs><g/><clipPath id="29db4ee4cd"><path d="M 4 19.773438 L 747 19.773438 L 747 730.023438 L 4 730.023438 Z M 4 19.773438 " clip-rule="nonzero"/></clipPath><clipPath id="2c5de5da02"><path d="M 327.707031 589.253906 L 346.5 589.253906 L 346.5 608.046875 L 327.707031 608.046875 Z M 327.707031 589.253906 " clip-rule="nonzero"/></clipPath><clipPath id="3340ec4a4a"><path d="M 337.105469 589.253906 L 346.5 598.652344 L 337.105469 608.046875 L 327.707031 598.652344 Z M 337.105469 589.253906 " clip-rule="nonzero"/></clipPath></defs><g clip-path="url(#29db4ee4cd)"><path fill="#fab375" d="M 732.527344 225.542969 C 719.667969 186.960938 701.664062 153.523438 678.511719 129.089844 C 666.9375 116.226562 652.792969 103.367188 637.359375 93.078125 C 624.5 84.078125 609.066406 76.359375 594.917969 69.929688 C 584.628906 66.070312 574.339844 62.214844 565.339844 58.355469 C 558.910156 55.78125 552.476562 53.210938 546.046875 50.636719 L 538.332031 46.78125 C 526.757812 41.636719 513.894531 36.492188 501.035156 32.632812 C 481.746094 28.773438 462.453125 26.203125 444.449219 23.632812 C 427.730469 21.058594 411.011719 21.058594 391.71875 19.773438 C 387.859375 19.773438 382.714844 19.773438 378.859375 19.773438 C 350.566406 19.773438 320.984375 22.34375 286.261719 27.488281 C 256.679688 31.347656 225.816406 39.0625 196.234375 50.636719 C 180.800781 55.78125 165.371094 62.214844 152.507812 69.929688 C 138.363281 77.644531 124.214844 89.222656 111.355469 103.367188 C 98.492188 118.800781 86.917969 130.375 77.917969 143.234375 C 74.058594 149.667969 68.914062 156.097656 65.054688 162.527344 C 62.484375 166.386719 59.910156 170.242188 57.339844 174.101562 C 50.910156 184.390625 44.480469 193.394531 40.621094 203.679688 C 35.476562 213.96875 30.332031 226.832031 26.472656 240.976562 C 23.902344 251.265625 21.328125 261.554688 20.042969 271.84375 C 18.757812 274.414062 18.757812 278.273438 17.472656 280.847656 C 13.613281 297.566406 11.039062 314.285156 8.46875 337.433594 C 4.609375 369.585938 3.324219 403.023438 5.898438 440.320312 C 7.183594 457.039062 8.46875 477.617188 13.613281 496.90625 C 18.757812 514.910156 25.1875 532.917969 34.191406 549.636719 C 41.90625 563.78125 52.195312 579.214844 66.34375 595.933594 C 74.058594 606.222656 84.347656 615.226562 93.351562 624.226562 L 101.066406 631.945312 C 125.5 656.378906 155.082031 676.957031 191.089844 694.960938 C 207.808594 702.679688 225.816406 709.109375 247.679688 715.539062 C 268.253906 720.683594 290.117188 724.542969 306.839844 727.113281 C 322.269531 729.6875 338.988281 729.6875 360.851562 730.972656 C 365.996094 730.972656 369.855469 730.972656 375 730.972656 C 378.859375 730.972656 382.714844 730.972656 386.574219 730.972656 C 399.433594 730.972656 411.011719 728.398438 420.011719 727.113281 C 436.730469 724.542969 453.449219 720.683594 471.457031 714.253906 C 489.460938 709.109375 507.464844 700.105469 524.183594 692.390625 C 531.902344 688.53125 540.902344 684.671875 549.90625 679.527344 C 556.335938 675.671875 562.765625 671.8125 567.910156 667.953125 L 571.769531 665.382812 C 585.917969 655.09375 600.0625 643.519531 618.066406 626.800781 C 633.5 612.652344 645.074219 599.792969 655.363281 588.21875 C 669.511719 572.785156 679.800781 553.492188 690.089844 536.773438 C 700.375 518.769531 708.09375 499.476562 715.808594 481.472656 C 722.238281 466.039062 728.671875 449.320312 732.527344 433.886719 C 737.671875 415.882812 740.246094 396.59375 742.816406 378.585938 C 744.101562 363.15625 745.390625 346.4375 746.675781 327.144531 C 746.675781 306.566406 744.101562 285.988281 741.53125 269.269531 C 741.53125 256.410156 737.671875 242.261719 732.527344 225.542969 Z M 732.527344 225.542969 " fill-opacity="1" fill-rule="nonzero"/></g><g fill="#fef5ed" fill-opacity="1"><g transform="translate(176.138445, 612.276275)"><g><path d="M 7.367188 -26.3125 L 2.96875 -26.3125 L 2.96875 0 L 7.367188 0 C 13.90625 0 22.742188 -1.917969 22.742188 -13.15625 C 22.742188 -24.847656 13.757812 -26.3125 7.367188 -26.3125 Z M 7.367188 -4.285156 L 7.367188 -22.027344 C 7.367188 -22.027344 18.304688 -23.679688 18.304688 -13.15625 C 18.304688 -2.78125 7.367188 -4.285156 7.367188 -4.285156 Z M 7.367188 -4.285156 "/></g></g></g><g fill="#fef5ed" fill-opacity="1"><g transform="translate(201.022222, 612.276275)"><g><path d="M 7.367188 -21.914062 L 20.523438 -21.914062 L 20.523438 -26.3125 L 2.96875 -26.3125 L 2.96875 0 L 20.523438 0 L 20.523438 -4.398438 L 7.367188 -4.398438 L 7.367188 -10.976562 L 18.304688 -10.976562 L 18.304688 -15.335938 L 7.367188 -15.335938 Z M 7.367188 -21.914062 "/></g></g></g><g fill="#fef5ed" fill-opacity="1"><g transform="translate(223.124401, 612.276275)"><g><path d="M 24.882812 0 L 24.882812 -26.3125 L 20.523438 -26.3125 L 20.523438 -7.59375 L 7.40625 -26.3125 L 2.96875 -26.3125 L 2.96875 0 L 7.367188 0 L 7.367188 -18.71875 L 20.449219 0 Z M 24.882812 0 "/></g></g></g><g fill="#fef5ed" fill-opacity="1"><g transform="translate(251.015279, 612.276275)"><g><path d="M 21.011719 -26.3125 L 16.277344 -26.3125 L 10.488281 -10.789062 L 4.734375 -26.3125 L 0 -26.3125 L 10.488281 0.675781 Z M 21.011719 -26.3125 "/></g></g></g><g fill="#fef5ed" fill-opacity="1"><g transform="translate(272.064985, 612.276275)"><g><path d="M 7.367188 -21.914062 L 20.523438 -21.914062 L 20.523438 -26.3125 L 2.96875 -26.3125 L 2.96875 0 L 20.523438 0 L 20.523438 -4.398438 L 7.367188 -4.398438 L 7.367188 -10.976562 L 18.304688 -10.976562 L 18.304688 -15.335938 L 7.367188 -15.335938 Z M 7.367188 -21.914062 "/></g></g></g><g fill="#fef5ed" fill-opacity="1"><g transform="translate(294.167164, 612.276275)"><g><path d="M 10.902344 -10.976562 L 15.9375 0 L 20.785156 0 L 15.410156 -11.652344 C 17.78125 -12.515625 20.484375 -14.394531 20.484375 -18.644531 C 20.484375 -26.3125 11.691406 -26.3125 11.691406 -26.3125 L 2.933594 -26.3125 L 2.933594 0 L 7.328125 0 L 7.328125 -10.976562 Z M 7.328125 -15.335938 L 7.328125 -21.914062 L 11.691406 -21.914062 C 11.691406 -21.914062 16.085938 -21.914062 16.085938 -18.644531 C 16.085938 -15.335938 11.691406 -15.335938 11.691406 -15.335938 Z M 7.328125 -15.335938 "/></g></g></g><g fill="#fef5ed" fill-opacity="1"><g transform="translate(316.703764, 612.276275)"><g/></g></g><g fill="#fef5ed" fill-opacity="1"><g transform="translate(329.671889, 612.276275)"><g/></g></g><g fill="#fef5ed" fill-opacity="1"><g transform="translate(342.640014, 612.276275)"><g/></g></g><g fill="#fef5ed" fill-opacity="1"><g transform="translate(355.613732, 612.276275)"><g><path d="M 15.261719 -4.023438 C 10.410156 -4.023438 6.539062 -7.519531 6.539062 -13.15625 C 6.539062 -18.457031 9.847656 -22.289062 15.261719 -22.289062 C 17.667969 -22.289062 19.882812 -21.3125 21.464844 -19.734375 L 24.546875 -22.816406 C 22.175781 -25.222656 18.90625 -26.6875 15.261719 -26.6875 C 7.554688 -26.6875 2.066406 -21.085938 2.066406 -13.15625 C 2.066406 -4.886719 8.007812 0.375 15.261719 0.375 C 18.90625 0.375 22.175781 -1.089844 24.546875 -3.457031 L 21.464844 -6.578125 C 19.882812 -5 17.667969 -4.023438 15.261719 -4.023438 Z M 15.261719 -4.023438 "/></g></g></g><g fill="#fef5ed" fill-opacity="1"><g transform="translate(381.70035, 612.276275)"><g><path d="M 14.921875 -26.648438 C -2.40625 -26.648438 -2.441406 0.339844 14.921875 0.339844 C 32.214844 0.339844 32.175781 -26.648438 14.921875 -26.648438 Z M 14.921875 -3.910156 C 3.535156 -3.910156 3.570312 -22.363281 14.921875 -22.363281 C 26.3125 -22.363281 26.3125 -3.910156 14.921875 -3.910156 Z M 14.921875 -3.910156 "/></g></g></g><g fill="#fef5ed" fill-opacity="1"><g transform="translate(411.658607, 612.276275)"><g><path d="M 7.367188 -4.398438 L 7.367188 -26.3125 L 2.96875 -26.3125 L 2.96875 0 L 17.101562 0 L 17.101562 -4.398438 Z M 7.367188 -4.398438 "/></g></g></g><g fill="#fef5ed" fill-opacity="1"><g transform="translate(430.490567, 612.276275)"><g><path d="M 14.921875 -26.648438 C -2.40625 -26.648438 -2.441406 0.339844 14.921875 0.339844 C 32.214844 0.339844 32.175781 -26.648438 14.921875 -26.648438 Z M 14.921875 -3.910156 C 3.535156 -3.910156 3.570312 -22.363281 14.921875 -22.363281 C 26.3125 -22.363281 26.3125 -3.910156 14.921875 -3.910156 Z M 14.921875 -3.910156 "/></g></g></g><g fill="#fef5ed" fill-opacity="1"><g transform="translate(460.448824, 612.276275)"><g><path d="M 10.902344 -10.976562 L 15.9375 0 L 20.785156 0 L 15.410156 -11.652344 C 17.78125 -12.515625 20.484375 -14.394531 20.484375 -18.644531 C 20.484375 -26.3125 11.691406 -26.3125 11.691406 -26.3125 L 2.933594 -26.3125 L 2.933594 0 L 7.328125 0 L 7.328125 -10.976562 Z M 7.328125 -15.335938 L 7.328125 -21.914062 L 11.691406 -21.914062 C 11.691406 -21.914062 16.085938 -21.914062 16.085938 -18.644531 C 16.085938 -15.335938 11.691406 -15.335938 11.691406 -15.335938 Z M 7.328125 -15.335938 "/></g></g></g><g fill="#fef5ed" fill-opacity="1"><g transform="translate(482.964489, 612.276275)"><g><path d="M 15.109375 -3.042969 L 16.277344 0 L 21.011719 0 L 10.488281 -27.0625 L 0 0 L 4.734375 0 L 5.863281 -3.042969 Z M 7.292969 -6.839844 L 10.488281 -15.976562 L 13.683594 -6.839844 Z M 7.292969 -6.839844 "/></g></g></g><g fill="#fef5ed" fill-opacity="1"><g transform="translate(503.976627, 612.276275)"><g><path d="M 7.367188 -26.3125 L 2.96875 -26.3125 L 2.96875 0 L 7.367188 0 C 13.90625 0 22.742188 -1.917969 22.742188 -13.15625 C 22.742188 -24.847656 13.757812 -26.3125 7.367188 -26.3125 Z M 7.367188 -4.285156 L 7.367188 -22.027344 C 7.367188 -22.027344 18.304688 -23.679688 18.304688 -13.15625 C 18.304688 -2.78125 7.367188 -4.285156 7.367188 -4.285156 Z M 7.367188 -4.285156 "/></g></g></g><g fill="#fef5ed" fill-opacity="1"><g transform="translate(528.860404, 612.276275)"><g><path d="M 14.921875 -26.648438 C -2.40625 -26.648438 -2.441406 0.339844 14.921875 0.339844 C 32.214844 0.339844 32.175781 -26.648438 14.921875 -26.648438 Z M 14.921875 -3.910156 C 3.535156 -3.910156 3.570312 -22.363281 14.921875 -22.363281 C 26.3125 -22.363281 26.3125 -3.910156 14.921875 -3.910156 Z M 14.921875 -3.910156 "/></g></g></g><g clip-path="url(#2c5de5da02)"><g clip-path="url(#3340ec4a4a)"><path fill="#fef5ed" d="M 327.707031 589.253906 L 346.5 589.253906 L 346.5 608.046875 L 327.707031 608.046875 Z M 327.707031 589.253906 " fill-opacity="1" fill-rule="nonzero"/></g></g><g fill="#fef5ed" fill-opacity="1"><g transform="translate(198.401471, 200.846751)"><g><path d="M 81.53125 0 L 59.640625 0 C 58.640625 -1.382812 57.929688 -3.15625 57.515625 -5.3125 C 57.160156 -6.976562 56.625 -8.613281 55.90625 -10.21875 C 55.1875 -11.820312 53.945312 -13.15625 52.1875 -14.21875 C 50.4375 -15.28125 47.828125 -15.847656 44.359375 -15.921875 L 29.3125 -15.921875 L 29.3125 0 L 6.15625 0 L 6.15625 -55.21875 L 43.828125 -55.21875 C 52.828125 -55.21875 60.085938 -54.539062 65.609375 -53.1875 C 71.140625 -51.84375 75.175781 -49.726562 77.71875 -46.84375 C 80.257812 -43.957031 81.53125 -40.191406 81.53125 -35.546875 C 81.53125 -31.671875 80.648438 -28.410156 78.890625 -25.765625 C 77.128906 -23.128906 74.351562 -21.039062 70.5625 -19.5 C 74.226562 -17.988281 76.601562 -16.175781 77.6875 -14.0625 C 78.78125 -11.945312 79.457031 -9.617188 79.71875 -7.078125 C 79.976562 -4.816406 80.582031 -2.457031 81.53125 0 Z M 29.3125 -29.546875 L 42.546875 -29.59375 C 46.242188 -29.59375 49.15625 -29.757812 51.28125 -30.09375 C 53.414062 -30.425781 54.988281 -30.878906 56 -31.453125 C 57.007812 -32.023438 57.65625 -32.664062 57.9375 -33.375 C 58.21875 -34.082031 58.359375 -34.804688 58.359375 -35.546875 C 58.359375 -36.296875 58.21875 -37.03125 57.9375 -37.75 C 57.65625 -38.46875 57.007812 -39.113281 56 -39.6875 C 54.988281 -40.257812 53.414062 -40.710938 51.28125 -41.046875 C 49.15625 -41.378906 46.242188 -41.546875 42.546875 -41.546875 L 29.3125 -41.546875 Z M 29.3125 -29.546875 "/></g></g></g><g fill="#fef5ed" fill-opacity="1"><g transform="translate(282.982918, 200.846751)"><g><path d="M 92.71875 0 L 69.25 0 L 64.0625 -9.046875 L 29.234375 -9.046875 L 24.046875 0 L 0.578125 0 L 35.890625 -55.171875 L 57.40625 -55.171875 Z M 56.25 -22.703125 L 46.671875 -39.4375 L 37.046875 -22.703125 Z M 56.25 -22.703125 "/></g></g></g><g fill="#fef5ed" fill-opacity="1"><g transform="translate(376.257137, 200.846751)"><g><path d="M 81.53125 0 L 59.640625 0 C 58.640625 -1.382812 57.929688 -3.15625 57.515625 -5.3125 C 57.160156 -6.976562 56.625 -8.613281 55.90625 -10.21875 C 55.1875 -11.820312 53.945312 -13.15625 52.1875 -14.21875 C 50.4375 -15.28125 47.828125 -15.847656 44.359375 -15.921875 L 29.3125 -15.921875 L 29.3125 0 L 6.15625 0 L 6.15625 -55.21875 L 43.828125 -55.21875 C 52.828125 -55.21875 60.085938 -54.539062 65.609375 -53.1875 C 71.140625 -51.84375 75.175781 -49.726562 77.71875 -46.84375 C 80.257812 -43.957031 81.53125 -40.191406 81.53125 -35.546875 C 81.53125 -31.671875 80.648438 -28.410156 78.890625 -25.765625 C 77.128906 -23.128906 74.351562 -21.039062 70.5625 -19.5 C 74.226562 -17.988281 76.601562 -16.175781 77.6875 -14.0625 C 78.78125 -11.945312 79.457031 -9.617188 79.71875 -7.078125 C 79.976562 -4.816406 80.582031 -2.457031 81.53125 0 Z M 29.3125 -29.546875 L 42.546875 -29.59375 C 46.242188 -29.59375 49.15625 -29.757812 51.28125 -30.09375 C 53.414062 -30.425781 54.988281 -30.878906 56 -31.453125 C 57.007812 -32.023438 57.65625 -32.664062 57.9375 -33.375 C 58.21875 -34.082031 58.359375 -34.804688 58.359375 -35.546875 C 58.359375 -36.296875 58.21875 -37.03125 57.9375 -37.75 C 57.65625 -38.46875 57.007812 -39.113281 56 -39.6875 C 54.988281 -40.257812 53.414062 -40.710938 51.28125 -41.046875 C 49.15625 -41.378906 46.242188 -41.546875 42.546875 -41.546875 L 29.3125 -41.546875 Z M 29.3125 -29.546875 "/></g></g></g><g fill="#fef5ed" fill-opacity="1"><g transform="translate(460.838584, 200.846751)"><g><path d="M 72.640625 0 L 6.15625 0 L 6.15625 -55.21875 L 69.59375 -55.21875 L 69.59375 -41.546875 L 29.3125 -41.546875 L 29.3125 -32.890625 L 63.375 -32.890625 L 63.375 -22.28125 L 29.3125 -22.28125 L 29.3125 -13.65625 L 72.640625 -13.65625 Z M 72.640625 0 "/></g></g></g><g fill="#fef5ed" fill-opacity="1"><g transform="translate(188.510846, 310.346746)"><g><path d="M 29.3125 0 L 6.15625 0 L 6.15625 -55.21875 L 69.59375 -55.21875 L 69.59375 -41.546875 L 29.3125 -41.546875 L 29.3125 -32.890625 L 63.375 -32.890625 L 63.375 -22.28125 L 29.3125 -22.28125 Z M 29.3125 0 "/></g></g></g><g fill="#fef5ed" fill-opacity="1"><g transform="translate(261.168581, 310.346746)"><g><path d="M 41.75 1.1875 C 28.101562 1.1875 18.0625 -1.617188 11.625 -7.234375 C 5.925781 -12.210938 3.078125 -19 3.078125 -27.59375 C 3.078125 -36.15625 5.925781 -42.925781 11.625 -47.90625 C 18.0625 -53.519531 28.101562 -56.328125 41.75 -56.328125 C 55.394531 -56.328125 65.4375 -53.519531 71.875 -47.90625 C 77.5625 -42.925781 80.40625 -36.15625 80.40625 -27.59375 C 80.40625 -19 77.5625 -12.210938 71.875 -7.234375 C 65.4375 -1.617188 55.394531 1.1875 41.75 1.1875 Z M 41.75 -13.625 C 47.34375 -13.625 51.445312 -15.222656 54.0625 -18.421875 C 56.164062 -21.015625 57.21875 -24.070312 57.21875 -27.59375 C 57.21875 -31.101562 56.164062 -34.140625 54.0625 -36.703125 C 51.445312 -39.929688 47.34375 -41.546875 41.75 -41.546875 C 36.15625 -41.546875 32.035156 -39.929688 29.390625 -36.703125 C 27.285156 -34.140625 26.234375 -31.101562 26.234375 -27.59375 C 26.234375 -24.070312 27.285156 -21.015625 29.390625 -18.421875 C 32.035156 -15.222656 36.15625 -13.625 41.75 -13.625 Z M 41.75 -13.625 "/></g></g></g><g fill="#fef5ed" fill-opacity="1"><g transform="translate(344.634572, 310.346746)"><g><path d="M 81.53125 0 L 59.640625 0 C 58.640625 -1.382812 57.929688 -3.15625 57.515625 -5.3125 C 57.160156 -6.976562 56.625 -8.613281 55.90625 -10.21875 C 55.1875 -11.820312 53.945312 -13.15625 52.1875 -14.21875 C 50.4375 -15.28125 47.828125 -15.847656 44.359375 -15.921875 L 29.3125 -15.921875 L 29.3125 0 L 6.15625 0 L 6.15625 -55.21875 L 43.828125 -55.21875 C 52.828125 -55.21875 60.085938 -54.539062 65.609375 -53.1875 C 71.140625 -51.84375 75.175781 -49.726562 77.71875 -46.84375 C 80.257812 -43.957031 81.53125 -40.191406 81.53125 -35.546875 C 81.53125 -31.671875 80.648438 -28.410156 78.890625 -25.765625 C 77.128906 -23.128906 74.351562 -21.039062 70.5625 -19.5 C 74.226562 -17.988281 76.601562 -16.175781 77.6875 -14.0625 C 78.78125 -11.945312 79.457031 -9.617188 79.71875 -7.078125 C 79.976562 -4.816406 80.582031 -2.457031 81.53125 0 Z M 29.3125 -29.546875 L 42.546875 -29.59375 C 46.242188 -29.59375 49.15625 -29.757812 51.28125 -30.09375 C 53.414062 -30.425781 54.988281 -30.878906 56 -31.453125 C 57.007812 -32.023438 57.65625 -32.664062 57.9375 -33.375 C 58.21875 -34.082031 58.359375 -34.804688 58.359375 -35.546875 C 58.359375 -36.296875 58.21875 -37.03125 57.9375 -37.75 C 57.65625 -38.46875 57.007812 -39.113281 56 -39.6875 C 54.988281 -40.257812 53.414062 -40.710938 51.28125 -41.046875 C 49.15625 -41.378906 46.242188 -41.546875 42.546875 -41.546875 L 29.3125 -41.546875 Z M 29.3125 -29.546875 "/></g></g></g><g fill="#fef5ed" fill-opacity="1"><g transform="translate(429.216019, 310.346746)"><g><path d="M 111.109375 0 L 87.953125 0 L 87.953125 -35.203125 L 67.25 0 L 49.984375 0 L 29.3125 -35.203125 L 29.3125 0 L 6.15625 0 L 6.15625 -55.21875 L 33.671875 -55.21875 L 58.640625 -15.78125 L 83.5625 -55.21875 L 111.109375 -55.21875 Z M 111.109375 0 "/></g></g></g><g fill="#fef5ed" fill-opacity="1"><g transform="translate(58.03429, 419.84674)"><g><path d="M 81.53125 0 L 59.640625 0 C 58.640625 -1.382812 57.929688 -3.15625 57.515625 -5.3125 C 57.160156 -6.976562 56.625 -8.613281 55.90625 -10.21875 C 55.1875 -11.820312 53.945312 -13.15625 52.1875 -14.21875 C 50.4375 -15.28125 47.828125 -15.847656 44.359375 -15.921875 L 29.3125 -15.921875 L 29.3125 0 L 6.15625 0 L 6.15625 -55.21875 L 43.828125 -55.21875 C 52.828125 -55.21875 60.085938 -54.539062 65.609375 -53.1875 C 71.140625 -51.84375 75.175781 -49.726562 77.71875 -46.84375 C 80.257812 -43.957031 81.53125 -40.191406 81.53125 -35.546875 C 81.53125 -31.671875 80.648438 -28.410156 78.890625 -25.765625 C 77.128906 -23.128906 74.351562 -21.039062 70.5625 -19.5 C 74.226562 -17.988281 76.601562 -16.175781 77.6875 -14.0625 C 78.78125 -11.945312 79.457031 -9.617188 79.71875 -7.078125 C 79.976562 -4.816406 80.582031 -2.457031 81.53125 0 Z M 29.3125 -29.546875 L 42.546875 -29.59375 C 46.242188 -29.59375 49.15625 -29.757812 51.28125 -30.09375 C 53.414062 -30.425781 54.988281 -30.878906 56 -31.453125 C 57.007812 -32.023438 57.65625 -32.664062 57.9375 -33.375 C 58.21875 -34.082031 58.359375 -34.804688 58.359375 -35.546875 C 58.359375 -36.296875 58.21875 -37.03125 57.9375 -37.75 C 57.65625 -38.46875 57.007812 -39.113281 56 -39.6875 C 54.988281 -40.257812 53.414062 -40.710938 51.28125 -41.046875 C 49.15625 -41.378906 46.242188 -41.546875 42.546875 -41.546875 L 29.3125 -41.546875 Z M 29.3125 -29.546875 "/></g></g></g><g fill="#fef5ed" fill-opacity="1"><g transform="translate(142.615737, 419.84674)"><g><path d="M 41.75 1.1875 C 28.101562 1.1875 18.0625 -1.617188 11.625 -7.234375 C 5.925781 -12.210938 3.078125 -19 3.078125 -27.59375 C 3.078125 -36.15625 5.925781 -42.925781 11.625 -47.90625 C 18.0625 -53.519531 28.101562 -56.328125 41.75 -56.328125 C 55.394531 -56.328125 65.4375 -53.519531 71.875 -47.90625 C 77.5625 -42.925781 80.40625 -36.15625 80.40625 -27.59375 C 80.40625 -19 77.5625 -12.210938 71.875 -7.234375 C 65.4375 -1.617188 55.394531 1.1875 41.75 1.1875 Z M 41.75 -13.625 C 47.34375 -13.625 51.445312 -15.222656 54.0625 -18.421875 C 56.164062 -21.015625 57.21875 -24.070312 57.21875 -27.59375 C 57.21875 -31.101562 56.164062 -34.140625 54.0625 -36.703125 C 51.445312 -39.929688 47.34375 -41.546875 41.75 -41.546875 C 36.15625 -41.546875 32.035156 -39.929688 29.390625 -36.703125 C 27.285156 -34.140625 26.234375 -31.101562 26.234375 -27.59375 C 26.234375 -24.070312 27.285156 -21.015625 29.390625 -18.421875 C 32.035156 -15.222656 36.15625 -13.625 41.75 -13.625 Z M 41.75 -13.625 "/></g></g></g><g fill="#fef5ed" fill-opacity="1"><g transform="translate(226.081728, 419.84674)"><g><path d="M 92.71875 0 L 69.25 0 L 64.0625 -9.046875 L 29.234375 -9.046875 L 24.046875 0 L 0.578125 0 L 35.890625 -55.171875 L 57.40625 -55.171875 Z M 56.25 -22.703125 L 46.671875 -39.4375 L 37.046875 -22.703125 Z M 56.25 -22.703125 "/></g></g></g><g fill="#fef5ed" fill-opacity="1"><g transform="translate(319.355948, 419.84674)"><g><path d="M 36.46875 1.1875 C 29.007812 1.1875 22.992188 0.390625 18.421875 -1.203125 C 13.859375 -2.804688 10.382812 -5.015625 8 -7.828125 C 5.613281 -10.640625 4.007812 -13.878906 3.1875 -17.546875 L 27.78125 -17.546875 C 29.601562 -14.929688 32.5 -13.625 36.46875 -13.625 C 40.445312 -13.625 43.347656 -14.929688 45.171875 -17.546875 C 45.328125 -17.796875 45.40625 -18.023438 45.40625 -18.234375 C 45.40625 -18.929688 44.488281 -19.453125 42.65625 -19.796875 C 40.820312 -20.140625 38.082031 -20.398438 34.4375 -20.578125 C 29.84375 -20.785156 25.019531 -21.273438 19.96875 -22.046875 C 8.707031 -23.785156 3.078125 -28.3125 3.078125 -35.625 C 3.078125 -36.238281 3.113281 -36.894531 3.1875 -37.59375 C 4.007812 -41.257812 5.613281 -44.492188 8 -47.296875 C 10.382812 -50.109375 13.859375 -52.316406 18.421875 -53.921875 C 22.992188 -55.523438 29.007812 -56.328125 36.46875 -56.328125 C 43.9375 -56.328125 49.953125 -55.523438 54.515625 -53.921875 C 59.085938 -52.316406 62.566406 -50.109375 64.953125 -47.296875 C 67.335938 -44.492188 68.9375 -41.257812 69.75 -37.59375 L 45.171875 -37.59375 C 43.347656 -40.207031 40.445312 -41.515625 36.46875 -41.515625 C 32.5 -41.515625 29.601562 -40.207031 27.78125 -37.59375 C 27.65625 -37.382812 27.59375 -37.191406 27.59375 -37.015625 C 27.59375 -36.398438 28.46875 -35.941406 30.21875 -35.640625 C 31.976562 -35.347656 34.566406 -35.097656 37.984375 -34.890625 C 41.410156 -34.691406 45.0625 -34.359375 48.9375 -33.890625 C 52.8125 -33.429688 56.4375 -32.628906 59.8125 -31.484375 C 63.1875 -30.347656 65.820312 -28.664062 67.71875 -26.4375 C 69.207031 -24.71875 69.953125 -22.535156 69.953125 -19.890625 C 69.953125 -19.148438 69.882812 -18.367188 69.75 -17.546875 C 68.9375 -13.878906 67.335938 -10.640625 64.953125 -7.828125 C 62.566406 -5.015625 59.085938 -2.804688 54.515625 -1.203125 C 49.953125 0.390625 43.9375 1.1875 36.46875 1.1875 Z M 36.46875 1.1875 "/></g></g></g><g fill="#fef5ed" fill-opacity="1"><g transform="translate(392.359843, 419.84674)"><g><path d="M 47.09375 0 L 23.9375 0 L 23.9375 -41.546875 L 2.3125 -41.546875 L 2.3125 -55.21875 L 68.71875 -55.21875 L 68.71875 -41.546875 L 47.09375 -41.546875 Z M 47.09375 0 "/></g></g></g><g fill="#fef5ed" fill-opacity="1"><g transform="translate(463.363631, 419.84674)"><g><path d="M 29.3125 0 L 6.15625 0 L 6.15625 -55.21875 L 29.3125 -55.21875 Z M 29.3125 0 "/></g></g></g><g fill="#fef5ed" fill-opacity="1"><g transform="translate(498.827084, 419.84674)"><g><path d="M 88.0625 0 L 60.515625 0 L 29.3125 -37.359375 L 29.3125 0 L 6.15625 0 L 6.15625 -55.21875 L 33.703125 -55.21875 L 64.90625 -18.046875 L 64.90625 -55.21875 L 88.0625 -55.21875 Z M 88.0625 0 "/></g></g></g><g fill="#fef5ed" fill-opacity="1"><g transform="translate(593.024406, 419.84674)"><g><path d="M 41.75 1.1875 C 28.101562 1.1875 18.0625 -1.617188 11.625 -7.234375 C 5.925781 -12.210938 3.078125 -18.984375 3.078125 -27.546875 C 3.078125 -36.140625 5.925781 -42.925781 11.625 -47.90625 C 18.0625 -53.519531 28.101562 -56.328125 41.75 -56.328125 C 49.519531 -56.328125 55.984375 -55.453125 61.140625 -53.703125 C 66.296875 -51.960938 70.34375 -49.582031 73.28125 -46.5625 C 76.21875 -43.550781 78.222656 -40.085938 79.296875 -36.171875 L 54.515625 -36.171875 C 51.929688 -39.734375 47.675781 -41.515625 41.75 -41.515625 C 36.15625 -41.515625 32.035156 -39.910156 29.390625 -36.703125 C 27.285156 -34.109375 26.234375 -31.054688 26.234375 -27.546875 C 26.234375 -24.035156 27.285156 -20.992188 29.390625 -18.421875 C 32.035156 -15.222656 36.15625 -13.625 41.75 -13.625 C 46.257812 -13.625 49.648438 -14.015625 51.921875 -14.796875 C 54.191406 -15.578125 55.851562 -16.597656 56.90625 -17.859375 L 47.859375 -17.859375 L 47.859375 -27.546875 L 79.296875 -27.546875 L 79.296875 0.03125 L 69.671875 0.03125 L 67.71875 -5.3125 C 61.582031 -0.976562 52.925781 1.1875 41.75 1.1875 Z M 41.75 1.1875 "/></g></g></g><g fill="#fef5ed" fill-opacity="1"><g transform="translate(277.971779, 529.346735)"><g><path d="M 41.75 1.1875 C 28.101562 1.1875 18.0625 -1.617188 11.625 -7.234375 C 5.925781 -12.179688 3.078125 -18.953125 3.078125 -27.546875 C 3.078125 -36.140625 5.925781 -42.925781 11.625 -47.90625 C 18.0625 -53.488281 28.101562 -56.28125 41.75 -56.28125 C 49.75 -56.28125 56.363281 -55.363281 61.59375 -53.53125 C 66.832031 -51.695312 70.898438 -49.191406 73.796875 -46.015625 C 76.691406 -42.835938 78.613281 -39.195312 79.5625 -35.09375 L 55.21875 -35.09375 C 52.78125 -39.375 48.289062 -41.515625 41.75 -41.515625 C 36.15625 -41.515625 32.035156 -39.898438 29.390625 -36.671875 C 27.285156 -34.097656 26.234375 -31.054688 26.234375 -27.546875 C 26.234375 -24.035156 27.285156 -20.992188 29.390625 -18.421875 C 32.035156 -15.191406 36.15625 -13.578125 41.75 -13.578125 C 48.289062 -13.578125 52.78125 -15.734375 55.21875 -20.046875 L 79.5625 -20.046875 C 78.613281 -15.910156 76.691406 -12.253906 73.796875 -9.078125 C 70.898438 -5.898438 66.832031 -3.394531 61.59375 -1.5625 C 56.363281 0.269531 49.75 1.1875 41.75 1.1875 Z M 41.75 1.1875 "/></g></g></g><g fill="#fef5ed" fill-opacity="1"><g transform="translate(360.591573, 529.346735)"><g><path d="M 41.75 1.1875 C 28.101562 1.1875 18.0625 -1.617188 11.625 -7.234375 C 5.925781 -12.210938 3.078125 -19 3.078125 -27.59375 C 3.078125 -36.15625 5.925781 -42.925781 11.625 -47.90625 C 18.0625 -53.519531 28.101562 -56.328125 41.75 -56.328125 C 55.394531 -56.328125 65.4375 -53.519531 71.875 -47.90625 C 77.5625 -42.925781 80.40625 -36.15625 80.40625 -27.59375 C 80.40625 -19 77.5625 -12.210938 71.875 -7.234375 C 65.4375 -1.617188 55.394531 1.1875 41.75 1.1875 Z M 41.75 -13.625 C 47.34375 -13.625 51.445312 -15.222656 54.0625 -18.421875 C 56.164062 -21.015625 57.21875 -24.070312 57.21875 -27.59375 C 57.21875 -31.101562 56.164062 -34.140625 54.0625 -36.703125 C 51.445312 -39.929688 47.34375 -41.546875 41.75 -41.546875 C 36.15625 -41.546875 32.035156 -39.929688 29.390625 -36.703125 C 27.285156 -34.140625 26.234375 -31.101562 26.234375 -27.59375 C 26.234375 -24.070312 27.285156 -21.015625 29.390625 -18.421875 C 32.035156 -15.222656 36.15625 -13.625 41.75 -13.625 Z M 41.75 -13.625 "/></g></g></g><g fill="#fef5ed" fill-opacity="1"><g transform="translate(444.057564, 529.346735)"><g><path d="M 11.765625 0 L 1.15625 0 L 1.15625 -10.625 L 11.765625 -10.625 Z M 11.765625 0 "/></g></g></g></svg>